<svg width="153.000000" height="54.257721" viewBox="0 0 153 54.2577" fill="none" xmlns="http://www.w3.org/2000/svg" xmlns:xlink="http://www.w3.org/1999/xlink">
	<desc>
			Created with Pixso.
	</desc>
	<defs/>
	<rect id="NavLogo" width="153.000000" height="54.257721" fill="#FFFFFF" fill-opacity="0"/>
	<path id="Vector" d="M10.1733 0L10.1733 16.9555L5.08667 11.8689L0 16.9555L10.1733 27.1289L0 37.3022L5.08667 42.3888L10.1733 37.3022L10.1733 54.2577L13.5645 54.2577L37.3022 37.3022L22.0422 26.9254L37.3022 16.9555L13.5645 0L10.1733 0ZM16.9556 10.1733L27.1288 16.9555L16.9556 23.7378L16.9556 10.1733ZM16.9556 30.52L27.1288 37.3022L16.9556 44.0844L16.9556 30.52Z" fill="#000000" fill-opacity="1.000000" fill-rule="nonzero"/>
	<rect id="Title" width="109.000000" height="27.000000" transform="translate(44.000000 14.000000)" fill="#FFFFFF" fill-opacity="0"/>
	<path id="Teniko" d="M104.718 21.8589Q105.131 22.0703 105.652 22.0703Q106.218 22.0703 106.647 21.828Q106.858 21.7089 107.035 21.5312Q107.271 21.2956 107.404 21.0118Q107.574 20.6464 107.574 20.2012Q107.574 19.8275 107.434 19.5173Q107.295 19.2099 107.018 18.9648Q106.846 18.8117 106.649 18.7062Q106.213 18.4727 105.652 18.4727Q105.131 18.4727 104.718 18.684Q104.485 18.8028 104.287 18.9883Q104.027 19.2321 103.89 19.5322Q103.736 19.8668 103.736 20.2715Q103.736 20.6761 103.89 21.0108Q104.027 21.3109 104.287 21.5547Q104.485 21.7402 104.718 21.8589ZM114.077 33.6133L116.309 31.5039L120.751 37L124.395 37L118.542 29.5586L123.891 24.1855L120.294 24.1855L114.077 29.9453L114.077 19.1934L111.077 19.1934L111.077 37L114.077 37L114.077 33.6133ZM57.7697 22.8379L63.342 22.8379L63.342 37L66.4592 37L66.4592 22.8379L72.0256 22.8379L72.0256 20.2012L57.7697 20.2012L57.7697 22.8379ZM84.7728 31.5508Q84.8196 30.9766 84.8196 30.666Q84.8196 28.6973 83.9876 27.1973Q83.5416 26.3876 82.9062 25.7743Q82.3644 25.2513 81.6849 24.8711Q81.517 24.7761 81.3439 24.692Q80.0001 24.0391 78.3392 24.0391Q76.7636 24.0391 75.448 24.6238Q75.1832 24.7415 74.929 24.8828Q74.1598 25.3092 73.562 25.907Q72.985 26.484 72.5677 27.2207Q72.4012 27.5146 72.2674 27.8227Q71.7181 29.0869 71.7181 30.5898Q71.7181 32.1491 72.307 33.4395Q72.4351 33.7203 72.5911 33.9883Q72.9082 34.5294 73.3198 34.9851Q74.0492 35.7927 75.0755 36.332Q76.6868 37.1699 78.7962 37.1699Q80.4544 37.1699 81.7728 36.6426Q82.7339 36.2538 83.4553 35.6004Q83.7233 35.3575 83.9583 35.0781L82.347 33.2324Q81.8512 33.7367 81.2566 34.0578Q80.2137 34.6211 78.8665 34.6211Q77.3608 34.6211 76.2979 33.9351Q76.1944 33.8683 76.095 33.7949Q75.6205 33.4428 75.3004 32.9832Q74.8694 32.3644 74.7181 31.5508L84.7728 31.5508ZM98.2224 24.9381Q96.9038 24.0391 94.9722 24.0391Q93.5543 24.0391 92.4234 24.4961Q91.6243 24.8207 91.0174 25.3611Q90.7699 25.5816 90.5543 25.8379L90.5543 24.1855L87.7007 24.1855L87.7007 37L90.7007 37L90.7007 30.5195Q90.7007 28.71 91.6014 27.7187Q91.631 27.6861 91.6617 27.6543Q91.8759 27.4322 92.1246 27.2596Q92.991 26.6582 94.275 26.6582Q95.5046 26.6582 96.2594 27.2569Q96.4038 27.3714 96.5308 27.5078Q97.3218 28.3574 97.3218 30.0391L97.3218 37L100.322 37L100.322 29.6582Q100.322 27.0081 98.9993 25.6012Q98.93 25.5274 98.857 25.457Q98.5597 25.1681 98.2224 24.9381ZM128.437 36.5161Q129.854 37.1699 131.573 37.1699Q133.399 37.1699 134.873 36.4486Q134.987 36.3925 135.1 36.332Q135.991 35.8498 136.658 35.1531Q137.157 34.6309 137.531 33.9883Q137.697 33.7067 137.831 33.411Q138.41 32.1319 138.41 30.5898Q138.41 29.0426 137.823 27.7655Q137.692 27.4805 137.531 27.209Q137.17 26.5932 136.692 26.0888Q136.014 25.374 135.1 24.8828Q134.971 24.8132 134.84 24.7493Q133.379 24.0391 131.573 24.0391Q129.874 24.0391 128.47 24.6825Q128.266 24.7759 128.069 24.8828Q127.163 25.3698 126.486 26.0766Q125.999 26.5858 125.631 27.209Q125.48 27.467 125.355 27.7373Q124.758 29.0254 124.758 30.5898Q124.758 32.1491 125.347 33.4395Q125.475 33.7203 125.631 33.9883Q126.012 34.6386 126.521 35.1656Q127.186 35.8541 128.069 36.332Q128.25 36.4298 128.437 36.5161ZM107.141 24.1855L104.141 24.1855L104.141 37L107.141 37L107.141 24.1855ZM76.5618 26.8488Q77.3445 26.4414 78.3392 26.4414Q79.3881 26.4414 80.1907 26.8861Q80.5089 27.0624 80.7884 27.3086Q81.1417 27.6178 81.3932 27.9949Q81.8422 28.6684 81.9661 29.5586L74.6946 29.5586Q74.8368 28.6069 75.3355 27.9107Q75.5769 27.5739 75.9017 27.2969Q76.2104 27.0318 76.5618 26.8488ZM133.407 34.1734Q132.602 34.5977 131.573 34.5977Q130.532 34.5977 129.724 34.1638Q129.245 33.9063 128.848 33.4961Q128.611 33.2512 128.426 32.9716Q127.781 31.9934 127.781 30.5898Q127.781 29.2 128.418 28.2265Q128.605 27.9399 128.848 27.6895Q129.251 27.2713 129.738 27.0111Q130.54 26.582 131.573 26.582Q132.593 26.582 133.394 27.0015Q133.894 27.2636 134.309 27.6895Q134.567 27.9529 134.763 28.2562Q135.387 29.2212 135.387 30.5898Q135.387 31.9721 134.755 32.9418Q134.561 33.2382 134.309 33.4961Q133.9 33.914 133.407 34.1734Z" fill="#000000" fill-opacity="1.000000" fill-rule="evenodd"/>
</svg>
